<svg width="140" height="34" viewBox="0 0 140 34" fill="none" xmlns="http://www.w3.org/2000/svg">
<path d="M40.2656 6.65488C40.2656 5.16799 41.4421 3.97266 42.9055 3.97266C44.3689 3.97266 45.5453 5.16799 45.5453 6.65488C45.5453 8.14176 44.3689 9.3371 42.9055 9.3371C41.4421 9.3371 40.2656 8.14176 40.2656 6.65488Z" fill="#060C27"/>
<path d="M44.9366 12.3125H40.8047V28.6974H44.9366V12.3125Z" fill="#060C27"/>
<path d="M48.2038 12.3108H51.9914L52.3357 14.235H52.594C53.5696 12.9522 54.9182 11.9609 57.3285 11.9609C61.1735 11.9609 63.6125 14.4391 63.6125 18.754V28.6957H59.4805V19.6286C59.4805 16.9464 57.9598 15.6344 56.0373 15.6344C54.0574 15.6344 52.3357 16.9172 52.3357 19.8327V28.7248H48.2038V12.3108Z" fill="#060C27"/>
<path d="M68.5527 24.2307V15.6301H65.1094V12.3065H66.1997C68.1796 12.3065 68.9544 11.5776 68.9544 9.82836V7.875H72.6846V12.3356H76.9026V15.6593H72.6846V23.7351C72.6846 24.6389 72.9141 25.7759 74.8366 25.7759C75.3244 25.7759 75.927 25.6884 76.4148 25.5427V28.7205C75.6975 28.8955 74.7506 29.0704 73.5741 29.0704C69.0691 29.0121 68.5527 26.0383 68.5527 24.2307Z" fill="#060C27"/>
<path d="M100.173 12.309L100.546 14.6413H100.804C101.809 13.0087 102.899 11.9883 105.625 11.9883H106.773V16.1865C106.199 16.0991 105.625 16.0408 105.022 16.0408C101.464 16.0408 100.546 18.6938 100.546 21.0554V28.6939H96.4141V12.309H100.173Z" fill="#060C27"/>
<path d="M107.75 20.4723C107.75 15.4285 111.423 11.9883 116.272 11.9883C121.121 11.9883 124.794 15.4577 124.794 20.4723C124.794 25.5452 121.15 29.0146 116.272 29.0146C111.452 29.0146 107.75 25.516 107.75 20.4723ZM120.662 20.4723C120.662 17.7609 118.883 15.6326 116.243 15.6326C113.604 15.6326 111.853 17.7609 111.853 20.4723C111.853 23.2128 113.604 25.3994 116.243 25.3994C118.941 25.3994 120.662 23.2128 120.662 20.4723Z" fill="#060C27"/>
<path d="M126.571 23.446H130.56C130.789 25.2245 132.08 25.895 133.716 25.895C134.979 25.895 136.069 25.3994 136.069 24.2332C136.069 22.9796 134.979 22.4548 133.228 22.0175L131.707 21.6385C129.555 21.1137 127.088 20.239 127.088 17.0029C127.088 13.7376 129.928 11.9883 133.113 11.9883C137.475 11.9883 139.455 14.3206 139.684 17.0029H135.725C135.552 15.8367 134.663 15.1078 133.142 15.1078C131.88 15.1078 131.019 15.7201 131.019 16.7696C131.019 17.9067 132.109 18.1982 133.659 18.6355L135.179 19.0145C137.991 19.7434 140 21.0554 140 24.1166C140 27.4985 137.159 29.0146 133.745 29.0146C129.182 29.0146 126.801 26.828 126.571 23.446Z" fill="#060C27"/>
<path d="M90.1506 24.0303C89.6054 25.1673 88.4002 25.7795 86.7934 25.7795C84.297 25.7795 82.8049 24.0886 82.6327 21.7562H94.1104C94.139 21.2897 94.1677 20.9399 94.1677 20.5609C94.1677 14.7591 90.5236 12.2227 86.6212 12.2227C82.231 12.2227 78.5869 15.4588 78.5869 20.8233C78.5869 25.8087 82.0302 29.074 86.7934 29.074C89.9497 29.074 92.3313 27.7912 93.5078 25.6338L90.1506 24.0303ZM86.6499 15.5463C88.7446 15.5463 90.2367 16.9749 90.3227 18.9865H82.6901C82.9771 17.0332 84.4405 15.5463 86.6499 15.5463Z" fill="#060C27"/>
<path d="M23.8155 16.567V22.8644C23.8155 22.9811 23.7294 23.0685 23.6146 23.0685H20.1139C19.9992 23.0685 19.9131 22.9811 19.9131 22.8644V16.567C19.8844 14.8178 18.4784 13.3892 16.728 13.3892C14.9777 13.3892 13.543 14.8469 13.543 16.5962V22.8353C13.543 22.9519 13.4282 23.0685 13.3135 23.0685H9.87018C9.7554 23.0685 9.64062 22.9811 9.64062 22.8353V16.5379C9.64062 16.1297 9.69801 15.7216 9.7554 15.3426C9.7841 15.1968 9.87018 15.0802 9.98495 15.0219C11.9075 14.0014 13.3708 12.2522 14.0595 10.153C14.1169 10.0364 14.203 9.9198 14.3177 9.89064C15.0638 9.5991 15.8959 9.45332 16.728 9.45332C20.6304 9.42417 23.7868 12.6312 23.8155 16.567Z" fill="#1D47F3"/>
<path d="M19.3111 0.209831C16.7573 -0.198334 14.347 0.00574847 12.0802 0.676304C11.8793 0.734613 11.7932 1.02616 11.9654 1.17193C12.7688 1.98826 13.4288 2.95036 13.8592 4.05824C13.9166 4.20401 14.0314 4.26232 14.1748 4.23316C15.8391 3.88331 17.5894 3.85415 19.3972 4.26232C25.1073 5.51597 29.354 10.6472 29.5261 16.5656C29.7557 23.9417 23.9308 30.035 16.6999 30.035C9.66988 30.035 3.90239 24.2041 3.90239 17.0029C3.90239 16.7696 3.90239 16.5364 3.93108 16.3323C3.95977 16.0699 3.78761 15.8367 3.52936 15.7784C2.49638 15.4868 1.52078 14.9912 0.688656 14.3207C0.487798 14.1749 0.229552 14.2915 0.172164 14.5247C0.057388 15.3411 0 16.1574 0 17.0029C0 26.3907 7.51783 34 16.7286 34C26.542 34 34.4041 25.3702 33.3711 15.1953C32.5964 7.58594 26.7428 1.34686 19.3111 0.209831Z" fill="#1D47F3"/>
<path d="M3.01172 7.32362C3.01172 5.48688 4.47511 4 6.28284 4C8.09056 4 9.55395 5.48688 9.55395 7.32362C9.55395 9.16036 8.09056 10.6472 6.28284 10.6472C4.47511 10.6472 3.01172 9.16036 3.01172 7.32362Z" fill="#1D47F3"/>
</svg>
